# xmcd CD database file
#
# Track frame offsets:
#	150
#	16570
#	31822
#	51572
#	74735
#	89610
#	99470
#	110045
#	119620
#	136705
#	160270
#	174957
#	190474
#	210739
#	238152
#	261494
#	276637
#	293584
#	321672
#	335662
#
# Disc length: 4748 seconds
#
# Revision: 0
# Processed by: cddbd v1.4PL0 Copyright (c) Steve Scherf et al.
# Submitted via: CDex 1.50beta10
#
DISCID=40128a14
DTITLE=Ry Cooder - Jazz ('78) and Chicken Skin Music ('76)
DYEAR=1900
DGENRE=Blues
TTITLE0=Big Bad Bill (Is Sweet William Now)
TTITLE1=Face to Face That I Shall Meet Him (instrumental)
TTITLE2=a) The Pearls, b) Tia Juana (instrumental)
TTITLE3=The Dream (instrumental)
TTITLE4=Happy Meeting in Glory (instrumental)
TTITLE5=In a Mist (instrumental)
TTITLE6=Flashes (instrumental)
TTITLE7=Davenport Blues (instrumental)
TTITLE8=Shine
TTITLE9=Nobody
TTITLE10=We Shall Be Happy (instrumental)
TTITLE11=The Bourgeois Blues
TTITLE12=I Got Mine
TTITLE13=Always Lift Him Up
TTITLE14=He'll Have to Go
TTITLE15=Smack Dab in the Middle
TTITLE16=Stand by Me
TTITLE17=Yellow Roses
TTITLE18=Chloe (instrumental)
TTITLE19=Goodnight Irene
EXTD=
EXTT0=
EXTT1=
EXTT2=
EXTT3=
EXTT4=
EXTT5=
EXTT6=
EXTT7=
EXTT8=
EXTT9=
EXTT10=
EXTT11=
EXTT12=
EXTT13=
EXTT14=
EXTT15=
EXTT16=
EXTT17=
EXTT18=
EXTT19=
PLAYORDER=
